<svg width="68" height="98" viewBox="0 0 68 98" fill="none" xmlns="http://www.w3.org/2000/svg">
<path d="M34 46.3993C30.7795 46.3993 27.6909 45.1205 25.4137 42.8444C23.1365 40.5682 21.8571 37.481 21.8571 34.262C21.8571 31.0429 23.1365 27.9558 25.4137 25.6796C27.6909 23.4034 30.7795 22.1246 34 22.1246C37.2205 22.1246 40.3091 23.4034 42.5863 25.6796C44.8635 27.9558 46.1429 31.0429 46.1429 34.262C46.1429 35.8559 45.8288 37.4342 45.2185 38.9067C44.6083 40.3793 43.7139 41.7173 42.5863 42.8444C41.4587 43.9714 40.1201 44.8654 38.6469 45.4754C37.1736 46.0854 35.5946 46.3993 34 46.3993ZM34 0.277466C24.9826 0.277466 16.3346 3.85797 9.95837 10.2313C3.58213 16.6046 0 25.2487 0 34.262C0 59.7503 34 97.376 34 97.376C34 97.376 68 59.7503 68 34.262C68 25.2487 64.4179 16.6046 58.0416 10.2313C51.6654 3.85797 43.0174 0.277466 34 0.277466Z" fill="#832590"/>
</svg>
