<svg width="343" height="46" viewBox="0 0 343 46" fill="none" xmlns="http://www.w3.org/2000/svg">
<path d="M83.1466 12.1053V19.9383H77.3804V16.861H66.8963C64.7687 16.861 64.0286 18.2909 64.0286 20.591V25.7198C64.0286 28.5484 64.9229 29.1079 66.9272 29.1079H77.3804V26.0306H83.1466V33.8637H66.773C60.7601 33.8637 58.1082 31.6256 58.1082 25.44V20.8708C58.1082 14.9028 59.9892 12.1053 66.0021 12.1053H83.1466Z" fill="black"/>
<path d="M104.41 12.1363C110.423 12.1363 112.334 14.9339 112.334 20.8708V25.44C112.334 31.6256 109.652 33.8947 103.639 33.8947H95.5909C89.578 33.8947 86.9261 31.6256 86.9261 25.44V20.8708C86.9261 14.9339 88.8071 12.1363 94.82 12.1363H104.41ZM106.383 25.7509V20.591C106.383 18.2909 105.643 16.861 103.516 16.861H95.7142C93.5866 16.861 92.8465 18.2909 92.8465 20.591V25.7509C92.8465 28.5484 93.7407 29.139 95.745 29.139H103.485C105.489 29.139 106.383 28.5484 106.383 25.7509Z" fill="black"/>
<path d="M135.659 12.1363H141.486V33.8637H132.02L122.245 17.1719V33.8637H116.448V12.1363H125.791L135.659 28.8281V12.1363Z" fill="black"/>
<path d="M165.29 12.1363H171.117V33.8637H161.651L151.876 17.1719V33.8637H146.079V12.1363H155.422L165.29 28.8281V12.1363Z" fill="black"/>
<path d="M200.748 16.861H181.445V20.3113H197.726V25.067H181.445V29.139H200.748V33.8637H175.71V12.1363H200.748V16.861Z" fill="black"/>
<path d="M228.862 12.1053V19.9383H223.096V16.861H212.612C210.484 16.861 209.744 18.2909 209.744 20.591V25.7198C209.744 28.5484 210.638 29.1079 212.643 29.1079H223.096V26.0306H228.862V33.8637H212.488C206.475 33.8637 203.824 31.6256 203.824 25.44V20.8708C203.824 14.9028 205.705 12.1053 211.718 12.1053H228.862Z" fill="black"/>
<path d="M231.377 12.1363H256.416V16.8921H246.764V33.8637H240.998V16.8921H231.377V12.1363Z" fill="black"/>
<path d="M278.515 12.1363L284.281 12.1053V33.8637H278.515V25.067H264.978V33.8637H259.243V12.1363L264.978 12.1053V20.3113H278.515V12.1363Z" fill="#832590"/>
<path d="M307.375 12.1363H313.665V25.1292C313.665 31.1905 311.414 33.8637 305.278 33.8637H297.292C291.402 33.8637 288.627 31.9676 288.627 25.9063V12.1363H294.886V26.2482C294.886 28.393 296.305 29.139 298.587 29.139H304.014C306.789 29.139 307.375 28.2376 307.375 26.2171V12.1363Z" fill="#832590"/>
<path d="M342.969 20.3113L343 26.0306C343 28.5795 342.692 29.512 342.538 30.0404C342.044 31.5635 341.088 32.7446 339.485 33.3352C338.683 33.615 337.357 33.8637 335.63 33.8637H317.962V12.1053H332.855C334.582 12.1053 335.908 12.3539 336.71 12.6337C338.313 13.2243 339.238 14.3744 339.762 15.9285C339.916 16.4569 340.225 17.3894 340.225 19.9383V20.3113H342.969ZM323.697 16.861V20.3113H334.459V19.9072C334.459 18.1976 334.027 16.861 331.807 16.861H323.697ZM334.613 29.1079C336.802 29.1079 337.234 27.7713 337.234 26.0617V25.0981H323.697V29.1079H334.613Z" fill="#832590"/>
<path d="M34.8209 3.15451C31.1639 0.963527 26.6837 -0.152631 22.434 0.01681C17.5997 0.18663 13.0528 1.64031 9.11688 4.50321C8.32063 5.08237 7.51494 5.68884 6.82273 6.3908C6.90142 6.44061 6.98061 6.49086 7.06027 6.5414C8.03906 7.16249 9.08832 7.82829 10.1475 8.25944L10.2099 8.21651C10.6923 7.8782 11.1217 7.44512 11.5515 7.01166C11.8886 6.67158 12.2261 6.33127 12.5895 6.0363C15.5608 3.62468 19.3197 2.10168 23.1717 2.17609C27.0739 2.33013 30.5185 3.74611 33.5491 6.20445C33.9351 6.51752 34.2936 6.85958 34.6519 7.20137C34.9861 7.5201 35.3199 7.83859 35.6755 8.13307C36.3164 7.88187 38.5473 6.92628 38.8886 6.3569C38.7013 5.61512 35.5268 3.57773 34.8209 3.15451Z" fill="#832590"/>
<path d="M24.0193 6.07217C23.4803 5.67974 23.0823 5.57394 22.4276 5.66359C21.0227 6.36707 19.518 8.57405 19.0264 10.0345C18.9565 10.2421 18.916 10.4343 19.0176 10.6402C19.055 10.7159 19.1508 10.7641 19.2289 10.7876C20.0937 11.0471 22.476 11.0477 23.4553 11.0311C23.6621 11.0208 23.9101 11.0168 24.1783 11.0125C25.0508 10.9983 26.1379 10.9807 26.7234 10.7331C26.8349 10.5828 26.8645 10.4934 26.838 10.2995C26.6742 9.09951 25.0187 6.79977 24.0193 6.07217Z" fill="#832590"/>
<path d="M27.4473 5.76204C27.4558 5.7623 27.4643 5.76249 27.4727 5.76268C27.4886 5.76304 27.5045 5.7634 27.5203 5.76424C29.0414 5.84532 32.2459 8.10691 33.2289 9.23209L32.2543 9.55512C32.0655 9.6168 31.8632 9.6908 31.6534 9.76751C31.0092 10.0031 30.295 10.2642 29.6895 10.2727C29.4646 10.1474 29.3258 9.7865 29.217 9.50333C29.1949 9.44588 29.1741 9.39164 29.154 9.34321C29.108 9.2324 29.0633 9.11941 29.0185 9.00586C28.9028 8.71312 28.7855 8.41659 28.6407 8.14385C28.466 7.81472 28.2588 7.49988 28.0518 7.18511C27.8968 6.94957 27.7418 6.71399 27.6005 6.47257C27.4496 6.21492 27.3689 6.06861 27.4473 5.76204Z" fill="#832590"/>
<path d="M17.9416 5.79484C17.9267 5.79486 17.9112 5.79488 17.8953 5.7948C16.3767 6.22569 13.6955 8.03258 12.7704 9.31924C13.1948 9.47996 13.6171 9.62794 14.0526 9.75559C14.1444 9.78337 14.2565 9.82152 14.3815 9.86409C14.9698 10.0644 15.8453 10.3626 16.2527 10.1382C16.5126 9.99511 16.6241 9.61292 16.7144 9.30327C16.7345 9.23437 16.7535 9.16902 16.7729 9.11074C16.9817 8.48341 17.2839 7.86943 17.6086 7.29459C17.6811 7.16621 17.7846 7.02819 17.8915 6.88569C18.0831 6.63009 18.2856 6.36006 18.3398 6.10532C18.3544 6.03653 18.3459 5.98169 18.335 5.91327C18.2081 5.79448 18.1003 5.79462 17.9416 5.79484Z" fill="#832590"/>
<path d="M18.1726 13.2677C18.7971 13.2741 19.425 13.3402 20.0543 13.4064C20.6552 13.4697 21.2573 13.5331 21.8589 13.5447L21.9659 13.5468C22.8852 13.5647 23.8146 13.5828 24.7314 13.5192C25.069 13.4958 25.4075 13.4583 25.7461 13.4208C26.1976 13.3707 26.6496 13.3206 27.0992 13.3039C27.1262 13.3029 27.1546 13.3013 27.1839 13.2996C27.3732 13.2889 27.6 13.2759 27.7262 13.4147C28.2883 14.0328 28.5985 16.9936 28.6415 17.8742C28.6794 18.6504 28.6727 19.4354 28.6659 20.2172V20.218C28.6633 20.5164 28.6608 20.8144 28.6607 21.1111L27.868 21.1009L20.9801 21.0987C20.6382 21.1007 20.2869 21.1123 19.9317 21.124C19.0163 21.1542 18.0757 21.1852 17.2081 21.0545C17.0805 20.9668 17.048 20.9137 17.0214 20.7572C16.8492 19.7478 17.6204 14.0006 18.1726 13.2677Z" fill="#832590"/>
<path d="M35.5369 37.6902C35.6365 37.6317 35.7533 37.611 35.8659 37.5944C35.9845 37.6523 36.1442 37.726 36.3287 37.8112C37.1901 38.2088 38.594 38.8568 38.9023 39.3195C38.6006 40.3096 34.4572 42.8953 33.4325 43.4422C32.5222 43.9281 31.5742 44.3436 30.5995 44.6897C30.4451 44.7784 30.2923 44.8554 30.1444 44.9062C30.0712 44.9302 29.9977 44.9534 29.9241 44.976C27.4168 45.7431 24.7449 46.0833 22.089 45.9828C19.9972 45.9152 17.9193 45.5758 15.9437 44.9713C15.87 44.9488 15.7965 44.9255 15.7233 44.9016C15.6186 44.8656 15.5142 44.8105 15.41 44.7441C14.3854 44.3883 13.3896 43.9563 12.4352 43.4469C11.4105 42.9 7.2671 40.3142 6.96543 39.3241C7.27368 38.8615 8.67761 38.2134 9.53899 37.8158C9.72355 37.7306 9.88321 37.6569 10.0018 37.599C10.1144 37.6156 10.2312 37.6363 10.3308 37.6949C10.6298 37.8708 11.1129 38.318 11.6075 38.7759C12.0333 39.17 12.4675 39.5721 12.8002 39.8156C14.8106 41.2874 16.9313 42.4249 19.3678 43.0022C20.8981 43.3647 22.4416 43.4928 23.9623 43.3996C24.8103 43.3309 25.6586 43.1969 26.4999 42.9975C28.9364 42.4202 31.0571 41.2828 33.0675 39.811C33.4001 39.5674 33.8343 39.1655 34.2601 38.7713C34.7546 38.3135 35.2379 37.8661 35.5369 37.6902Z" fill="#832590"/>
<path d="M24.5578 23.7039C22.139 23.6903 19.7185 23.6768 17.3058 23.7439C17.2845 23.7573 17.2647 23.7693 17.2462 23.7804C17.1347 23.8475 17.0738 23.8841 17.0423 24.0439C16.8771 24.8833 17.7284 31.5954 18.1823 32.1677C18.2679 32.2755 18.4519 32.2824 18.5876 32.2874L18.5967 32.2878L18.6123 32.2884C19.092 32.3078 19.5901 32.2482 20.0845 32.1891C20.3819 32.1535 20.678 32.1181 20.9678 32.1001C22.5997 31.999 24.2046 32.0087 25.8347 32.1503C25.9392 32.1594 26.0701 32.1772 26.2156 32.1971C26.7848 32.2746 27.5781 32.3827 27.892 32.1171C28.3631 30.7793 28.7009 28.3512 28.7303 26.9277C28.7421 26.3597 28.7217 25.7893 28.7014 25.2182C28.6835 24.7162 28.6656 24.2137 28.6694 23.7123C27.3004 23.7193 25.9293 23.7116 24.5578 23.7039Z" fill="#832590"/>
<path d="M15.8105 35.5242C15.9847 35.5047 16.1317 35.5132 16.3045 35.5405C16.6053 35.7142 16.9369 36.6219 17.2182 37.3923C17.3664 37.7978 17.5006 38.1653 17.6091 38.3676C17.6895 38.5175 17.7977 38.6672 17.9074 38.8189C18.0823 39.0608 18.2607 39.3076 18.3348 39.5672C18.3839 39.7392 18.3808 39.78 18.294 39.932C17.8557 40.0555 17.0428 39.5954 16.5189 39.2988C16.4165 39.2408 16.3251 39.1891 16.2497 39.1492C15.0448 38.4734 13.6237 37.6036 12.7382 36.5234C13.6028 36.0622 14.5953 35.8204 15.5487 35.5882C15.6364 35.5668 15.7237 35.5456 15.8105 35.5242Z" fill="#832590"/>
<path d="M29.6216 35.4639C29.7945 35.4366 29.9414 35.428 30.1157 35.4476C30.2025 35.4689 30.2898 35.4902 30.3774 35.5115C31.3309 35.7438 32.3233 35.9856 33.1879 36.4468C32.3024 37.527 30.8813 38.3968 29.6764 39.0726C29.601 39.1125 29.5097 39.1642 29.4073 39.2222C28.8833 39.5187 28.0705 39.9788 27.6322 39.8554C27.5453 39.7033 27.5422 39.6626 27.5914 39.4905C27.6654 39.231 27.8438 38.9842 28.0188 38.7422C28.1284 38.5906 28.2367 38.4408 28.3171 38.291C28.4256 38.0887 28.5598 37.7212 28.7079 37.3157C28.9893 36.5453 29.3208 35.6376 29.6216 35.4639Z" fill="#832590"/>
<path d="M21.5222 34.6665C22.5361 34.5687 26.0413 34.5897 26.8298 34.9296C26.9305 35.0719 26.9546 35.116 26.9384 35.3002C26.9108 35.615 26.7205 35.9823 26.5617 36.2888C26.5334 36.3436 26.5059 36.3966 26.4807 36.4468C25.8666 37.668 25.2154 38.8041 24.1713 39.7017C24.0114 39.8098 23.8487 39.9196 23.6716 39.9973C23.2383 40.1871 22.7705 40.1654 22.3358 39.9891C20.8606 39.391 19.8878 37.5268 19.3 36.1438C19.2904 36.1212 19.2801 36.0973 19.2693 36.0722C19.1364 35.7637 18.928 35.2797 19.0439 34.9916C19.4028 34.7459 20.3861 34.711 21.0676 34.6867C21.2451 34.6804 21.402 34.6749 21.5222 34.6665Z" fill="#832590"/>
<path d="M11.6161 11.5294C11.4388 11.4636 11.295 11.4134 11.1036 11.4083C9.4486 13.6476 8.44527 16.7156 8.02181 19.4416C8.00803 19.5303 7.99004 19.6271 7.97126 19.7282C7.90777 20.07 7.83514 20.461 7.88449 20.7566C7.90147 20.8585 7.9325 20.9892 8.03049 21.0412C8.27415 21.1707 10.3083 21.1373 11.4795 21.118C11.8075 21.1126 12.0683 21.1083 12.2024 21.1091C12.4049 21.109 12.609 21.1118 12.8138 21.1146C13.3715 21.1222 13.9342 21.1299 14.4834 21.0811C14.6008 19.1254 14.7413 17.198 15.0485 15.2604C15.0703 15.1223 15.1269 14.899 15.1922 14.6413C15.3571 13.9911 15.5775 13.1217 15.4358 12.8494C15.2804 12.726 15.1132 12.6554 14.9272 12.5902C14.6321 12.4869 14.3261 12.4133 14.0202 12.3397C13.7838 12.2828 13.5472 12.2259 13.3158 12.1553C12.9244 12.0359 12.5396 11.8859 12.1559 11.7364C11.976 11.6662 11.7962 11.5962 11.6161 11.5294Z" fill="#832590"/>
<path d="M34.6149 11.4357C34.4235 11.4408 34.2797 11.4911 34.1024 11.5568C33.9223 11.6236 33.7427 11.6936 33.5628 11.7637C33.179 11.9133 32.7942 12.0633 32.4027 12.1827C32.1712 12.2533 31.9348 12.3102 31.6983 12.3671C31.3924 12.4407 31.0865 12.5143 30.7913 12.6176C30.6054 12.6828 30.4381 12.7534 30.2827 12.8768C30.1411 13.1491 30.3614 14.0182 30.5262 14.6684C30.5915 14.9262 30.6482 15.1497 30.6701 15.2878C30.9772 17.2254 31.1178 19.1528 31.2352 21.1086C31.7843 21.1573 32.347 21.1497 32.9048 21.1421C33.1095 21.1393 33.3136 21.1365 33.5161 21.1365C33.6503 21.1358 33.9105 21.14 34.2385 21.1454C35.4097 21.1647 37.4444 21.1981 37.688 21.0687C37.786 21.0167 37.8171 20.886 37.834 20.784C37.8834 20.4884 37.8108 20.0975 37.7473 19.7557C37.7285 19.6546 37.7105 19.5578 37.6967 19.469C37.2733 16.743 36.2699 13.675 34.6149 11.4357Z" fill="#832590"/>
<path d="M9.0644 23.7037L9.06251 23.7037C8.55904 23.7124 8.14697 23.7196 7.90532 23.7192C7.42034 26.2953 9.40285 31.91 10.8762 34.0246C10.9544 34.1369 11.0398 34.241 11.1287 34.3448C11.6447 34.1948 12.1471 34.0113 12.6496 33.8278C13.2746 33.5996 13.8998 33.3713 14.5521 33.207C14.6016 33.1946 14.6554 33.1827 14.7116 33.1703C15.0154 33.103 15.39 33.0201 15.5478 32.7729C15.6388 32.6302 15.6109 32.4333 15.5807 32.274C15.5285 31.9987 15.461 31.7268 15.3935 31.455C15.3248 31.1785 15.256 30.9018 15.2035 30.6217C15.0396 29.7469 14.9484 28.8481 14.8617 27.9625C14.8493 27.8358 14.8367 27.709 14.8242 27.5822L14.8237 27.5772C14.7564 26.8958 14.6888 26.212 14.6387 25.5304C14.6268 25.3681 14.625 25.2005 14.6231 25.0316C14.6195 24.704 14.6158 24.3716 14.5385 24.0646C14.5162 23.9761 14.4788 23.8961 14.4289 23.8205C13.8783 23.6203 10.8773 23.6723 9.0644 23.7037Z" fill="#832590"/>
<path d="M36.6539 23.7311C34.8411 23.6997 31.8402 23.6477 31.2897 23.8479C31.2398 23.9236 31.2023 24.0036 31.18 24.092C31.1027 24.399 31.099 24.7314 31.0954 25.0591C31.0935 25.2279 31.0917 25.3956 31.0798 25.5578C31.0297 26.2395 30.9621 26.9233 30.8948 27.6047C30.8821 27.7331 30.8694 27.8616 30.8568 27.9899C30.7701 28.8755 30.679 29.7744 30.515 30.6491C30.4625 30.9292 30.3938 31.2057 30.3251 31.4822C30.2576 31.7541 30.19 32.0261 30.1378 32.3014C30.1076 32.4607 30.0797 32.6577 30.1707 32.8003C30.3285 33.0475 30.7031 33.1304 31.0069 33.1977C31.063 33.2101 31.117 33.2221 31.1664 33.2344C31.8187 33.3987 32.4439 33.627 33.0689 33.8552C33.5714 34.0387 34.0738 34.2222 34.5899 34.3722C34.6787 34.2684 34.7641 34.1644 34.8423 34.052C36.3157 31.9374 38.2982 26.3227 37.8132 23.7467C37.5715 23.747 37.1599 23.7399 36.6564 23.7312L36.6539 23.7311Z" fill="#832590"/>
<path d="M40.6922 8.38228C40.6797 8.38074 40.6657 8.37901 40.6514 8.37715C40.0935 8.98134 37.8234 10.1154 37.0556 10.3064C37.4159 10.5761 37.6941 11.1257 37.9174 11.5667C37.9547 11.6405 37.9906 11.7112 38.0249 11.777C39.3152 14.245 40.1826 16.7692 40.5842 19.531C40.5922 19.5861 40.6029 19.6519 40.6148 19.7249C40.6827 20.1423 40.7895 20.7987 40.6514 21.0841C40.7035 21.0857 40.7555 21.0873 40.8076 21.0889C41.3359 21.1052 41.8639 21.1216 42.3931 21.1122C42.6767 21.1134 42.9938 21.1254 43.3244 21.1379C44.1542 21.1694 45.0686 21.204 45.7489 21.0789C45.9006 20.9185 45.924 20.7751 45.9187 20.5548C45.9079 20.0966 45.8128 19.6129 45.7214 19.1485L45.7212 19.1475C45.6983 19.0308 45.6756 18.9153 45.6545 18.8017C45.0634 15.6048 43.8252 12.6687 42.039 9.96159C41.9809 9.87358 41.9221 9.78215 41.8623 9.68909C41.5948 9.2731 41.3064 8.82447 40.964 8.50298C40.8572 8.40266 40.8155 8.39751 40.6922 8.38228Z" fill="#832590"/>
<path d="M5.11729 8.37169C5.47054 8.47814 5.876 8.74197 6.24806 8.98408C6.41177 9.0906 6.56902 9.19293 6.7125 9.27578C7.38562 9.6584 8.06558 10.0283 8.75239 10.3855C8.60849 10.6527 8.4609 10.9175 8.31338 11.1821C7.98747 11.7667 7.66191 12.3507 7.37732 12.9593C6.15196 15.5799 5.63843 18.2447 5.26413 21.0852C4.88311 21.1227 4.49185 21.1198 4.1046 21.1169H4.10373C3.97933 21.1159 3.85535 21.115 3.73225 21.1154C2.48814 21.1193 1.24406 21.1139 0 21.0993C0.292091 16.2955 2.16724 12.1039 5.11729 8.37169Z" fill="#832590"/>
<path d="M45.0515 23.7096C43.6685 23.6706 42.1146 23.6268 40.8446 23.7496C40.6993 23.9688 40.6233 24.9477 40.5584 25.784C40.5221 26.2508 40.4893 26.6735 40.4498 26.8944C39.9923 29.4595 39.0645 32.2424 37.6708 34.4583C37.6336 34.5175 37.5958 34.5813 37.5568 34.647C37.4246 34.8702 37.2794 35.1153 37.1016 35.2731C37.5991 35.4746 40.5925 37.1056 40.7752 37.4198C41.0349 37.264 41.4124 36.9295 41.4931 36.6222C41.497 36.6065 41.4976 36.5903 41.4983 36.5741C41.4985 36.5699 41.4986 36.5658 41.4988 36.5616C41.4989 36.5597 41.4991 36.5577 41.4992 36.5558C41.9078 36.2104 42.2455 35.6363 42.5355 35.1431C42.5842 35.0604 42.6316 34.9799 42.6777 34.9032C42.7914 34.7135 42.9026 34.5223 43.0114 34.3296C43.1196 34.1368 43.2253 33.9425 43.3284 33.7468C43.4316 33.551 43.532 33.3538 43.6297 33.1552C43.7273 32.9566 43.8222 32.7567 43.9143 32.5554C44.0064 32.3541 44.0955 32.1516 44.1815 31.9478C44.2681 31.7441 44.3516 31.5391 44.4322 31.3329C44.5127 31.1268 44.5905 30.9196 44.6655 30.7112C44.7404 30.5029 44.8124 30.2936 44.8814 30.0832C44.9503 29.8729 45.0163 29.6616 45.0792 29.4494C45.1426 29.2372 45.2027 29.0241 45.2596 28.8101C45.317 28.5962 45.3711 28.3816 45.4219 28.1661C45.4733 27.9507 45.5216 27.7346 45.5669 27.5178C45.6117 27.301 45.6537 27.0836 45.6929 26.8656C45.7317 26.6476 45.7677 26.4291 45.8009 26.2101C45.8336 25.9911 45.8636 25.7717 45.8907 25.5518C45.9174 25.332 45.9411 25.1118 45.9617 24.8913C45.9654 24.8486 45.9696 24.8047 45.9739 24.7599C46.0068 24.4177 46.0446 24.0251 45.8764 23.7315C45.6116 23.7254 45.3357 23.7176 45.0526 23.7096L45.0515 23.7096Z" fill="#832590"/>
<path d="M0.436579 23.7226C1.75733 23.6867 4.38919 23.6153 5.10134 23.7561C5.22206 24.228 5.27537 24.7107 5.32871 25.1938C5.35308 25.4146 5.37747 25.6354 5.4083 25.8553C5.57062 27.0131 5.79982 28.2269 6.1058 29.3532C6.49241 30.7768 7.10219 32.2905 7.78338 33.5891C7.89005 33.7924 8.02435 33.9914 8.1585 34.1902C8.32503 34.437 8.49134 34.6834 8.60432 34.9374C8.67604 35.0986 8.67234 35.2137 8.61745 35.3785C8.42943 35.5941 8.02923 35.7579 7.68641 35.8983C7.56455 35.9483 7.44989 35.9952 7.35464 36.0404C6.96184 36.2344 6.59088 36.4684 6.22069 36.702C5.82279 36.9531 5.42567 37.2037 5.00334 37.4032C1.8755 33.8404 -0.067669 28.4758 0.00525938 23.7339C0.123698 23.7311 0.269803 23.7271 0.436579 23.7226Z" fill="#832590"/>
</svg>
