<svg width="106" height="106" viewBox="0 0 106 106" fill="none" xmlns="http://www.w3.org/2000/svg">
<path d="M80.2353 7.26908C71.8088 2.2203 61.4854 -0.351715 51.6931 0.0387361C40.5539 0.430061 30.0767 3.77983 21.0074 10.377C19.1726 11.7116 17.3162 13.1091 15.7211 14.7266C15.9025 14.8414 16.0849 14.9572 16.2685 15.0737C18.5238 16.5049 20.9416 18.0391 23.3821 19.0326L23.5259 18.9337C24.6375 18.1541 25.6269 17.1561 26.6172 16.1573C27.3942 15.3737 28.1717 14.5894 29.0091 13.9097C35.8558 8.35252 44.517 4.843 53.393 5.01446C62.3846 5.36943 70.3216 8.63234 77.3048 14.2972C78.1942 15.0186 79.0204 15.8069 79.846 16.5945C80.6159 17.3289 81.3853 18.0628 82.2046 18.7414C83.6815 18.1626 88.8219 15.9606 89.6082 14.6485C89.1768 12.9392 81.8619 8.24433 80.2353 7.26908Z" fill="#832590" fill-opacity="0.5"/>
<path d="M55.346 13.9924C54.1041 13.0881 53.187 12.8443 51.6784 13.0509C48.4412 14.6719 44.9739 19.7576 43.8412 23.1229C43.6801 23.6013 43.5869 24.0443 43.821 24.5187C43.9071 24.6931 44.1279 24.8043 44.3078 24.8583C46.3005 25.4564 51.7899 25.4578 54.0463 25.4195C54.523 25.3958 55.0944 25.3866 55.7125 25.3765C57.7229 25.3439 60.2278 25.3033 61.5768 24.7328C61.8337 24.3864 61.9019 24.1805 61.8409 23.7336C61.4635 20.9684 57.6488 15.669 55.346 13.9924Z" fill="#832590" fill-opacity="0.5"/>
<path d="M63.2449 13.2777C63.2645 13.2783 63.284 13.2788 63.3035 13.2792C63.3401 13.28 63.3767 13.2809 63.4132 13.2828C66.9181 13.4696 74.3019 18.6811 76.567 21.274L74.3214 22.0183C73.8864 22.1604 73.4201 22.331 72.9366 22.5077C71.4523 23.0505 69.8068 23.6522 68.4113 23.6719C67.8932 23.3832 67.5735 22.5515 67.3227 21.899C67.2718 21.7666 67.2237 21.6416 67.1775 21.53C67.0716 21.2747 66.9686 21.0143 66.8652 20.7526C66.5986 20.0781 66.3285 19.3948 65.9949 18.7663C65.5921 18.0078 65.1149 17.2823 64.6377 16.557C64.2807 16.0142 63.9236 15.4714 63.5979 14.915C63.2502 14.3213 63.0642 13.9842 63.2449 13.2777Z" fill="#832590" fill-opacity="0.5"/>
<path d="M41.3417 13.3533C41.3072 13.3534 41.2716 13.3534 41.2349 13.3532C37.7356 14.3461 31.5576 18.5099 29.4259 21.4748C30.4039 21.8451 31.3769 22.1861 32.3804 22.4803C32.592 22.5443 32.8502 22.6322 33.1382 22.7303C34.4939 23.192 36.5113 23.8789 37.4499 23.362C38.0488 23.0322 38.3057 22.1515 38.5138 21.438C38.5601 21.2792 38.604 21.1286 38.6487 20.9943C39.1297 19.5487 39.826 18.1339 40.5742 16.8093C40.7414 16.5134 40.9799 16.1954 41.226 15.867C41.6676 15.278 42.1341 14.6558 42.259 14.0688C42.2928 13.9103 42.2731 13.7839 42.2481 13.6262C41.9556 13.3525 41.7072 13.3528 41.3417 13.3533Z" fill="#832590" fill-opacity="0.5"/>
<path d="M41.8738 30.5735C43.3127 30.5881 44.7597 30.7404 46.2097 30.8931C47.5943 31.0389 48.9818 31.185 50.3679 31.2118L50.6146 31.2166C52.7327 31.2578 54.8742 31.2994 56.9868 31.153C57.7648 31.0991 58.5448 31.0126 59.3249 30.9261C60.3653 30.8107 61.4068 30.6952 62.4428 30.6568C62.505 30.6546 62.5705 30.6508 62.638 30.647C63.0742 30.6221 63.5967 30.5924 63.8876 30.9122C65.1829 32.3365 65.8975 39.1592 65.9966 41.1884C66.084 42.9771 66.0684 44.786 66.0529 46.5875V46.5894C66.0469 47.2769 66.041 47.9635 66.0408 48.6473L64.2143 48.6239L48.343 48.6188C47.5553 48.6234 46.7456 48.6501 45.9273 48.6771C43.8179 48.7467 41.6506 48.8181 39.6513 48.5169C39.3575 48.3147 39.2825 48.1924 39.2211 47.8318C38.8245 45.5059 40.6015 32.2623 41.8738 30.5735Z" fill="#832590" fill-opacity="0.5"/>
<path d="M81.8853 86.8514C82.1147 86.7165 82.3839 86.6688 82.6432 86.6305C82.9166 86.7639 83.2845 86.9338 83.7097 87.1301C85.6946 88.0463 88.9295 89.5396 89.6398 90.6058C88.9447 92.8873 79.3973 98.8458 77.0362 100.106C74.9385 101.226 72.7542 102.183 70.5082 102.981C70.1526 103.185 69.8004 103.362 69.4597 103.48C69.291 103.535 69.1217 103.588 68.9519 103.64C63.1747 105.408 57.0179 106.192 50.898 105.96C46.0782 105.805 41.2901 105.022 36.7379 103.63C36.5681 103.578 36.3988 103.524 36.2301 103.469C35.9889 103.386 35.7482 103.259 35.5082 103.106C33.1473 102.286 30.8528 101.291 28.6536 100.117C26.2924 98.8565 16.7451 92.898 16.0499 90.6165C16.7602 89.5503 19.9952 88.057 21.98 87.1408C22.4053 86.9445 22.7732 86.7746 23.0465 86.6412C23.3059 86.6795 23.575 86.7272 23.8045 86.8621C24.4936 87.2675 25.6068 88.298 26.7463 89.3531C27.7274 90.2614 28.7281 91.1878 29.4947 91.749C34.127 95.1406 39.0137 97.7617 44.6278 99.0919C48.1539 99.9275 51.7106 100.222 55.2146 100.008C57.1688 99.8494 59.1234 99.5406 61.0619 99.0812C66.6761 97.751 71.5628 95.1299 76.1951 91.7383C76.9616 91.1772 77.9621 90.2509 78.9431 89.3427C80.0827 88.2876 81.1962 87.2568 81.8853 86.8514Z" fill="#832590" fill-opacity="0.5"/>
<path d="M56.5868 54.622C51.0133 54.5908 45.4359 54.5595 39.8765 54.7142C39.8275 54.7452 39.7818 54.7727 39.7393 54.7982C39.4822 54.953 39.342 55.0373 39.2694 55.4054C38.8886 57.3397 40.8504 72.8067 41.8962 74.1256C42.0934 74.3741 42.5174 74.3898 42.8301 74.4015L42.8511 74.4023L42.8871 74.4037C43.9923 74.4484 45.1401 74.3111 46.2792 74.1748C46.9645 74.0929 47.6469 74.0112 48.3147 73.9699C52.0749 73.7369 55.773 73.7591 59.5291 74.0856C59.7699 74.1065 60.0715 74.1476 60.4068 74.1933C61.7184 74.372 63.5462 74.621 64.2695 74.009C65.355 70.9263 66.1335 65.331 66.2013 62.0508C66.2283 60.742 66.1815 59.4274 66.1346 58.1116C66.0933 56.9548 66.0521 55.7968 66.0609 54.6413C62.9065 54.6575 59.7472 54.6398 56.5868 54.622Z" fill="#832590" fill-opacity="0.5"/>
<path d="M36.431 81.8602C36.8325 81.8151 37.1711 81.8348 37.5694 81.8977C38.2624 82.298 39.0264 84.3897 39.6748 86.1649C40.0161 87.0994 40.3254 87.9462 40.5754 88.4124C40.7606 88.7577 41.0101 89.1028 41.2628 89.4522C41.6659 90.0098 42.0769 90.5784 42.2475 91.1765C42.3608 91.573 42.3536 91.6669 42.1536 92.0173C41.1435 92.3017 39.2706 91.2415 38.0633 90.5581C37.8274 90.4245 37.6168 90.3054 37.4431 90.2135C34.6668 88.6562 31.3922 86.6518 29.3518 84.1627C31.3441 83.0998 33.6309 82.5427 35.8279 82.0076C36.0298 81.9584 36.2309 81.9094 36.431 81.8602Z" fill="#832590" fill-opacity="0.5"/>
<path d="M68.255 81.7211C68.6534 81.6582 68.9919 81.6385 69.3934 81.6836C69.5935 81.7328 69.7946 81.7818 69.9965 81.8309C72.1935 82.3661 74.4804 82.9232 76.4726 83.9861C74.4323 86.4752 71.1577 88.4796 68.3813 90.0368C68.2076 90.1288 67.9971 90.2479 67.7611 90.3815C66.5538 91.0649 64.6809 92.1251 63.6709 91.8407C63.4708 91.4903 63.4637 91.3964 63.5769 90.9999C63.7475 90.4018 64.1586 89.8332 64.5617 89.2756C64.8143 88.9262 65.0638 88.5811 65.249 88.2358C65.4991 87.7696 65.8083 86.9228 66.1497 85.9883C66.798 84.2131 67.562 82.1214 68.255 81.7211Z" fill="#832590" fill-opacity="0.5"/>
<path d="M49.5922 79.8836C51.9284 79.6583 60.0051 79.7067 61.8221 80.4899C62.054 80.818 62.1095 80.9195 62.0723 81.3439C62.0087 82.0693 61.5702 82.9158 61.2044 83.622C61.139 83.7482 61.0757 83.8704 61.0176 83.9862C59.6026 86.8001 58.1022 89.4181 55.6963 91.4865C55.3279 91.7356 54.9528 91.9887 54.5447 92.1676C53.5464 92.6051 52.4686 92.5551 51.4667 92.1488C48.0676 90.7705 45.8261 86.4748 44.4717 83.2879C44.4496 83.2359 44.4258 83.1808 44.4009 83.1229C44.0948 82.412 43.6144 81.2967 43.8816 80.6329C44.7085 80.0667 46.9743 79.9861 48.5447 79.9303C48.9535 79.9158 49.3152 79.9029 49.5922 79.8836Z" fill="#832590" fill-opacity="0.5"/>
<path d="M26.7663 26.5678C26.3576 26.4162 26.0262 26.3004 25.5853 26.2886C21.7717 31.4488 19.4598 38.5185 18.4841 44.8001C18.4523 45.0047 18.4109 45.2277 18.3676 45.4607C18.2213 46.2482 18.054 47.1492 18.1677 47.8304C18.2068 48.0653 18.2783 48.3665 18.5041 48.4864C19.0655 48.7846 23.7527 48.7076 26.4513 48.6632C27.2071 48.6508 27.8081 48.6409 28.1172 48.6426C28.5838 48.6426 29.054 48.649 29.5259 48.6554C30.811 48.673 32.1077 48.6907 33.373 48.5783C33.6435 44.0715 33.9674 39.6301 34.6751 35.1652C34.7255 34.847 34.8559 34.3325 35.0064 33.7387C35.3862 32.2404 35.8941 30.2369 35.5677 29.6094C35.2095 29.325 34.8242 29.1623 34.3957 29.0122C33.7156 28.7741 33.0107 28.6045 32.3058 28.4349C31.7611 28.3039 31.2159 28.1727 30.6828 28.01C29.7807 27.7348 28.8942 27.3893 28.0099 27.0446C27.5954 26.8831 27.1812 26.7216 26.7663 26.5678Z" fill="#832590" fill-opacity="0.5"/>
<path d="M79.7608 26.3519C79.3198 26.3636 78.9884 26.4795 78.5797 26.631C78.1649 26.7848 77.7509 26.9462 77.3363 27.1078C76.452 27.4524 75.5654 27.798 74.6632 28.0733C74.13 28.236 73.5851 28.3671 73.0402 28.4982C72.3353 28.6678 71.6304 28.8374 70.9503 29.0754C70.5218 29.2256 70.1365 29.3883 69.7783 29.6726C69.452 30.3001 69.9596 32.3028 70.3394 33.8011C70.49 34.3952 70.6205 34.9101 70.6709 35.2284C71.3786 39.6933 71.7025 44.1347 71.973 48.6415C73.2383 48.7539 74.535 48.7362 75.8202 48.7187C76.292 48.7122 76.7622 48.7058 77.2288 48.7058C77.5379 48.7042 78.1376 48.714 78.8934 48.7264C81.5921 48.7708 86.2805 48.8479 86.8419 48.5496C87.0677 48.4297 87.1392 48.1285 87.1783 47.8936C87.292 47.2124 87.1247 46.3116 86.9784 45.5241C86.9351 45.291 86.8937 45.0679 86.8619 44.8634C85.8862 38.5817 83.5743 31.512 79.7608 26.3519Z" fill="#832590" fill-opacity="0.5"/>
<path d="M20.8865 54.6215L20.8821 54.6216C19.722 54.6417 18.7725 54.6581 18.2157 54.6574C17.0982 60.5935 21.6663 73.5317 25.0613 78.4045C25.2415 78.6633 25.4383 78.9031 25.643 79.1424C26.8322 78.7966 27.9897 78.3739 29.1476 77.9511C30.5876 77.4252 32.0284 76.899 33.5313 76.5204C33.6455 76.492 33.7694 76.4646 33.8989 76.4359C34.5989 76.2809 35.4621 76.0897 35.8257 75.5201C36.0355 75.1914 35.9711 74.7375 35.9015 74.3705C35.7813 73.7361 35.6257 73.1096 35.4701 72.4832C35.3118 71.8461 35.1535 71.2085 35.0324 70.5629C34.6546 68.5472 34.4446 66.476 34.2447 64.4353C34.2162 64.1434 34.1873 63.8512 34.1584 63.5589L34.1573 63.5474C34.0021 61.9774 33.8464 60.4016 33.731 58.8309C33.7036 58.457 33.6993 58.0707 33.695 57.6816C33.6867 56.9265 33.6782 56.1606 33.5 55.4531C33.4487 55.2493 33.3624 55.065 33.2474 54.8907C31.9789 54.4293 25.0637 54.5491 20.8865 54.6215Z" fill="#832590" fill-opacity="0.5"/>
<path d="M84.4591 54.6847C80.2819 54.6123 73.3671 54.4925 72.0986 54.9539C71.9836 55.1282 71.8973 55.3126 71.846 55.5164C71.6678 56.2238 71.6594 56.9897 71.651 57.7448C71.6467 58.1338 71.6424 58.5203 71.615 58.8941C71.4996 60.465 71.3439 62.0406 71.1887 63.6107C71.1595 63.9068 71.1302 64.2029 71.1013 64.4985C70.9014 66.5392 70.6914 68.6105 70.3136 70.6262C70.1926 71.2717 70.0343 71.9089 69.876 72.546C69.7204 73.1725 69.5647 73.7993 69.4445 74.4337C69.3749 74.8007 69.3105 75.2546 69.5203 75.5834C69.8839 76.1529 70.747 76.3441 71.447 76.4991C71.5763 76.5277 71.7007 76.5553 71.8147 76.5836C73.3176 76.9622 74.7582 77.4883 76.1983 78.0143C77.3561 78.4371 78.5139 78.8599 79.703 79.2056C79.9077 78.9664 80.1045 78.7266 80.2847 78.4677C83.6797 73.5949 88.2478 60.6567 87.1303 54.7206C86.5735 54.7214 85.625 54.7049 84.4648 54.6848L84.4591 54.6847Z" fill="#832590" fill-opacity="0.5"/>
<path d="M93.7642 19.3157C93.7355 19.3121 93.7032 19.3082 93.6703 19.3039C92.3847 20.6961 87.1538 23.3094 85.3846 23.7495C86.2148 24.3709 86.8559 25.6374 87.3705 26.6538C87.4565 26.8237 87.539 26.9867 87.6182 27.1384C90.5912 32.8255 92.59 38.6421 93.5154 45.0062C93.5338 45.1333 93.5585 45.2848 93.5859 45.4531C93.7424 46.4149 93.9885 47.9274 93.6703 48.5851C93.7902 48.5888 93.9101 48.5925 94.0301 48.5962C95.2475 48.6338 96.4642 48.6714 97.6835 48.6498C98.337 48.6526 99.0677 48.6802 99.8293 48.7091C101.741 48.7816 103.848 48.8614 105.416 48.573C105.766 48.2034 105.82 47.8731 105.807 47.3653C105.782 46.3095 105.563 45.1949 105.353 44.1249L105.352 44.1226C105.299 43.8536 105.247 43.5874 105.198 43.3257C103.836 35.9589 100.983 29.1931 96.8676 22.955C96.7337 22.7522 96.5983 22.5415 96.4604 22.327C95.8441 21.3684 95.1794 20.3347 94.3904 19.5938C94.1444 19.3627 94.0483 19.3508 93.7642 19.3157Z" fill="#832590" fill-opacity="0.5"/>
<path d="M11.7914 19.2913C12.6054 19.5366 13.5397 20.1445 14.397 20.7024C14.7742 20.9479 15.1365 21.1837 15.4672 21.3746C17.0182 22.2563 18.585 23.1087 20.1675 23.9318C19.8359 24.5476 19.4959 25.1576 19.1559 25.7674C18.405 27.1146 17.6548 28.4603 16.999 29.8628C14.1755 35.9016 12.9923 42.0422 12.1298 48.5876C11.2518 48.674 10.3502 48.6673 9.45793 48.6606H9.45593C9.16929 48.6585 8.88361 48.6563 8.59997 48.6573C5.73325 48.6663 2.8666 48.6539 0 48.6201C0.673045 37.5506 4.99382 27.8915 11.7914 19.2913Z" fill="#832590" fill-opacity="0.5"/>
<path d="M103.809 54.6352C100.622 54.5453 97.0418 54.4443 94.1154 54.7273C93.7806 55.2325 93.6054 57.4882 93.4558 59.4152C93.3723 60.491 93.2966 61.4651 93.2057 61.9741C92.1515 67.885 90.0135 74.2978 86.8023 79.4039C86.7164 79.5403 86.6293 79.6874 86.5396 79.8388C86.2349 80.3531 85.9003 80.9179 85.4906 81.2815C86.637 81.7459 93.5344 85.5043 93.9554 86.2282C94.5538 85.8692 95.4236 85.0984 95.6098 84.3903C95.6186 84.3542 95.6201 84.3167 95.6216 84.2793C95.622 84.2698 95.6224 84.2602 95.6229 84.2507C95.6231 84.2462 95.6234 84.2418 95.6237 84.2373C96.5651 83.4413 97.3433 82.1183 98.0117 80.982C98.1239 80.7913 98.2329 80.6059 98.3392 80.4291C98.6013 79.9921 98.8576 79.5514 99.1081 79.1073C99.3574 78.663 99.6009 78.2153 99.8387 77.7643C100.076 77.3131 100.308 76.8588 100.533 76.4012C100.758 75.9435 100.976 75.4828 101.189 75.0191C101.401 74.5552 101.606 74.0885 101.804 73.6189C102.004 73.1494 102.196 72.677 102.382 72.202C102.568 71.727 102.747 71.2494 102.919 70.7694C103.092 70.2893 103.258 69.8069 103.417 69.3222C103.576 68.8375 103.728 68.3506 103.873 67.8616C104.019 67.3726 104.157 66.8816 104.289 66.3886C104.421 65.8957 104.545 65.401 104.663 64.9046C104.781 64.4081 104.892 63.9101 104.997 63.4106C105.1 62.9109 105.197 62.41 105.287 61.9077C105.376 61.4053 105.459 60.9019 105.536 60.3972C105.611 59.8926 105.68 59.387 105.743 58.8803C105.804 58.3737 105.859 57.8663 105.906 57.3582C105.915 57.2598 105.925 57.1586 105.934 57.0554C106.01 56.267 106.097 55.3622 105.71 54.6857C105.1 54.6716 104.464 54.6537 103.812 54.6353L103.809 54.6352Z" fill="#832590" fill-opacity="0.5"/>
<path d="M1.00598 54.665C4.04929 54.5825 10.1137 54.4179 11.7547 54.7423C12.0328 55.8297 12.1557 56.9421 12.2786 58.0552C12.3347 58.564 12.3909 59.0729 12.462 59.5796C12.836 62.2476 13.3641 65.0445 14.0692 67.64C14.96 70.9204 16.3651 74.4086 17.9347 77.4009C18.1805 77.8695 18.4899 78.328 18.7991 78.7861C19.1828 79.3547 19.566 79.9226 19.8263 80.5079C19.9916 80.8795 19.9831 81.1446 19.8566 81.5244C19.4233 82.0211 18.5012 82.3988 17.7112 82.7223C17.4305 82.8373 17.1663 82.9455 16.9468 83.0497C16.0417 83.4966 15.1869 84.0359 14.3339 84.5742C13.417 85.1528 12.502 85.7302 11.5289 86.1899C4.32159 77.9801 -0.155925 65.6181 0.0121188 54.6913C0.28503 54.6846 0.621689 54.6755 1.00598 54.665Z" fill="#832590" fill-opacity="0.5"/>
</svg>
