<svg width="41" height="41" viewBox="0 0 41 41" fill="none" xmlns="http://www.w3.org/2000/svg">
<path d="M41 20.4795C41 9.17375 31.816 0 20.5 0C9.184 0 0 9.17375 0 20.4795C0 26.7064 2.829 32.3182 7.257 36.0851C7.298 36.1261 7.339 36.1261 7.339 36.1671C7.708 36.4541 8.077 36.7411 8.487 37.0281C8.692 37.1511 8.856 37.3126 9.061 37.4766C12.4502 39.7706 16.4484 40.9978 20.541 41C24.6336 40.9978 28.6318 39.7706 32.021 37.4766C32.226 37.3536 32.39 37.1921 32.595 37.0666C32.964 36.7821 33.374 36.4951 33.743 36.2081C33.784 36.1671 33.825 36.1671 33.825 36.1261C38.171 32.3157 41 26.7064 41 20.4795ZM20.5 38.4196C16.646 38.4196 13.12 37.1896 10.209 35.1421C10.25 34.8141 10.332 34.4887 10.414 34.1607C10.6591 33.272 11.0174 32.4186 11.48 31.6213C11.931 30.8423 12.464 30.1453 13.12 29.5303C13.735 28.9153 14.473 28.3438 15.211 27.8928C15.99 27.4418 16.81 27.1138 17.712 26.8678C18.6213 26.6243 19.5586 26.5011 20.5 26.5014C23.295 26.4802 25.9876 27.5525 28.003 29.4893C28.946 30.4323 29.684 31.5384 30.217 32.8077C30.504 33.5457 30.709 34.3238 30.832 35.1421C27.8061 37.2694 24.1988 38.4137 20.5 38.4196ZM14.227 19.4571C13.8665 18.6297 13.6849 17.7355 13.694 16.8331C13.694 15.9336 13.858 15.0316 14.227 14.2116C14.596 13.3916 15.088 12.6562 15.703 12.0412C16.318 11.4262 17.056 10.9368 17.876 10.5677C18.696 10.1988 19.598 10.0347 20.5 10.0347C21.443 10.0347 22.304 10.1988 23.124 10.5677C23.944 10.9368 24.682 11.4288 25.297 12.0412C25.912 12.6562 26.404 13.3942 26.773 14.2116C27.142 15.0316 27.306 15.9336 27.306 16.8331C27.306 17.7761 27.142 18.6371 26.773 19.4545C26.4189 20.2635 25.9185 21.0002 25.297 21.6275C24.6695 22.2481 23.9328 22.7476 23.124 23.1009C21.4295 23.7958 19.5295 23.7958 17.835 23.1009C17.0262 22.7476 16.2895 22.2481 15.662 21.6275C15.0399 21.009 14.5515 20.272 14.227 19.4571ZM33.251 33.0537C33.251 32.9717 33.21 32.9307 33.21 32.8487C32.8075 31.5657 32.2131 30.3509 31.447 29.2458C30.6803 28.1326 29.7388 27.1505 28.659 26.3374C27.834 25.7165 26.9397 25.1937 25.994 24.7794C26.4222 24.4929 26.8206 24.1641 27.183 23.7979C27.7943 23.1945 28.3311 22.52 28.782 21.7889C29.6932 20.2984 30.1624 18.5798 30.135 16.8331C30.1484 15.5403 29.8973 14.2584 29.397 13.0662C28.9037 11.9173 28.1938 10.8742 27.306 9.99375C26.4174 9.12519 25.3745 8.42997 24.231 7.94375C23.0371 7.44369 21.7534 7.1934 20.459 7.20831C19.1645 7.19421 17.8808 7.44537 16.687 7.94631C15.5309 8.4266 14.4847 9.13717 13.612 10.0347C12.7389 10.9187 12.0431 11.9616 11.562 13.1072C11.0617 14.2994 10.8106 15.5813 10.824 16.8741C10.824 17.7761 10.947 18.6362 11.193 19.4545C11.439 20.3155 11.767 21.0945 12.218 21.8299C12.628 22.5679 13.202 23.2239 13.817 23.8389C14.186 24.2079 14.596 24.5351 15.047 24.8204C14.0971 25.2433 13.2022 25.7802 12.382 26.4194C11.316 27.2394 10.373 28.2208 9.594 29.2868C8.82083 30.3878 8.22587 31.6036 7.831 32.8897C7.79 32.9717 7.79 33.0537 7.79 33.0947C4.551 29.8172 2.542 25.3944 2.542 20.4795C2.542 10.6088 10.619 2.53944 20.5 2.53944C30.381 2.53944 38.458 10.6088 38.458 20.4795C38.4526 25.1944 36.5805 29.7153 33.251 33.0537Z" fill="#832590"/>
</svg>
